<svg width="336" height="322" viewBox="0 0 336 322" fill="none" xmlns="http://www.w3.org/2000/svg">
<g filter="url(#filter0_i_171_6)">
<path d="M0 62.7273C0 28.084 26.6733 0 59.5764 0H271.158C304.062 0 336 28.084 336 62.7273V260.41C336 295.053 304.062 322 271.158 322H59.5764C26.6732 322 0 293.916 0 259.273V62.7273Z" fill="url(#paint0_linear_171_6)"/>
<path d="M57.5512 147.774C65.1893 139.833 77.4552 139.958 84.9479 148.053L152.66 221.206C160.153 229.3 160.035 242.299 152.397 250.24C144.759 258.18 132.493 258.055 125 249.96L57.2877 176.808C49.7951 168.713 49.9131 155.714 57.5512 147.774Z" fill="white"/>
<path d="M264.349 70.1764C272.22 61.7458 285.05 61.6737 293.005 70.0152C300.96 78.3567 301.028 91.9532 293.157 100.384L153.656 249.799C145.785 258.23 132.955 258.302 125 249.96C117.045 241.619 116.977 228.022 124.848 219.592L264.349 70.1764Z" fill="white"/>
</g>
<defs>
<filter id="filter0_i_171_6" x="0" y="0" width="336" height="326" filterUnits="userSpaceOnUse" color-interpolation-filters="sRGB">
<feFlood flood-opacity="0" result="BackgroundImageFix"/>
<feBlend mode="normal" in="SourceGraphic" in2="BackgroundImageFix" result="shape"/>
<feColorMatrix in="SourceAlpha" type="matrix" values="0 0 0 0 0 0 0 0 0 0 0 0 0 0 0 0 0 0 127 0" result="hardAlpha"/>
<feOffset dy="4"/>
<feGaussianBlur stdDeviation="2"/>
<feComposite in2="hardAlpha" operator="arithmetic" k2="-1" k3="1"/>
<feColorMatrix type="matrix" values="0 0 0 0 0 0 0 0 0 0 0 0 0 0 0 0 0 0 0.25 0"/>
<feBlend mode="normal" in2="shape" result="effect1_innerShadow_171_6"/>
</filter>
<linearGradient id="paint0_linear_171_6" x1="0" y1="161" x2="336" y2="161" gradientUnits="userSpaceOnUse">
<stop stop-color="#BC13FE"/>
<stop offset="0.293269" stop-color="#E025BE"/>
<stop offset="0.447115" stop-color="#F0459A"/>
<stop offset="0.639423" stop-color="#FB697A"/>
<stop offset="0.860577" stop-color="#FF8E5F"/>
</linearGradient>
</defs>
</svg>
